<?xml version="1.0" standalone="no"?>
<!DOCTYPE svg PUBLIC "-//W3C//DTD SVG 20010904//EN"
 "http://www.w3.org/TR/2001/REC-SVG-20010904/DTD/svg10.dtd">
<svg version="1.0" xmlns="http://www.w3.org/2000/svg"
 width="700.000000pt" height="700.000000pt" viewBox="0 0 700.000000 700.000000"
 preserveAspectRatio="xMidYMid meet">
<metadata>
Created by potrace 1.14, written by Peter Selinger 2001-2017
</metadata>
<g transform="translate(0.000000,700.000000) scale(0.100000,-0.100000)"
fill="#000000" stroke="none">
<path d="M3407 6946 c-26 -13 -71 -45 -100 -72 -29 -27 -91 -83 -137 -125 -94
-84 -365 -327 -505 -453 -49 -45 -110 -99 -135 -121 -24 -22 -49 -45 -55 -51
-5 -5 -50 -46 -99 -90 -50 -43 -97 -86 -106 -94 -9 -8 -52 -46 -95 -85 -43
-38 -90 -81 -105 -95 -48 -43 -167 -150 -191 -171 -13 -11 -45 -39 -70 -62
-25 -23 -83 -76 -129 -117 -46 -41 -95 -86 -109 -98 -38 -35 -161 -145 -286
-257 -60 -54 -115 -104 -121 -109 -6 -6 -41 -38 -78 -71 -38 -33 -78 -69 -90
-80 -28 -25 -156 -141 -306 -275 -63 -57 -153 -138 -200 -180 -47 -42 -112
-101 -145 -130 -335 -297 -339 -303 -340 -415 0 -59 5 -78 28 -118 30 -51 82
-91 138 -107 20 -6 195 -10 419 -10 l385 0 1 -1673 0 -1672 21 -45 c24 -50 61
-89 113 -116 34 -18 111 -19 2390 -19 l2355 0 47 28 c50 29 89 72 109 122 9
23 12 403 13 1700 l1 1670 370 2 c204 1 389 5 411 8 60 9 127 55 161 112 24
41 28 58 27 118 0 78 -15 114 -66 167 -39 39 -24 25 -422 382 -44 39 -91 82
-106 96 -15 14 -64 59 -111 100 -46 41 -86 77 -89 80 -3 3 -45 41 -94 85 -50
44 -97 87 -106 95 -62 57 -132 120 -295 267 -44 39 -92 82 -106 95 -14 12 -66
59 -115 103 -101 91 -293 265 -310 280 -6 5 -46 42 -89 80 -43 39 -88 79 -100
90 -11 11 -61 56 -110 100 -101 89 -145 129 -225 202 -30 27 -75 67 -99 89
-25 21 -72 64 -105 95 -34 31 -81 73 -106 95 -25 21 -49 44 -55 50 -5 6 -77
71 -160 145 -82 73 -168 150 -190 170 -22 21 -51 47 -65 59 -14 12 -61 54
-104 93 -43 40 -91 82 -105 95 -71 61 -174 76 -254 38z m163 -589 c31 -28 96
-88 145 -132 50 -44 95 -84 101 -90 33 -31 203 -184 294 -266 58 -51 110 -98
116 -104 6 -5 48 -44 94 -85 46 -41 88 -80 94 -85 6 -6 74 -66 151 -135 77
-69 149 -134 161 -145 20 -20 68 -63 289 -260 61 -54 112 -101 115 -104 3 -4
68 -63 145 -131 77 -69 145 -129 151 -135 6 -5 51 -46 99 -90 48 -44 96 -87
105 -95 9 -8 57 -51 106 -95 48 -44 115 -104 149 -134 33 -30 62 -57 65 -60 3
-3 43 -40 90 -81 47 -41 91 -81 98 -87 11 -11 -13 -13 -123 -13 l-137 0 -131
118 c-73 65 -147 131 -166 148 -18 16 -46 40 -61 54 -62 56 -109 99 -185 165
-44 39 -82 73 -85 76 -3 3 -30 27 -60 54 -133 116 -208 183 -260 231 -30 27
-138 124 -240 214 -102 90 -192 171 -201 179 -9 9 -49 45 -90 81 -109 96 -542
482 -633 564 -120 108 -128 115 -166 133 -19 10 -62 18 -95 20 -83 2 -128 -22
-260 -144 -11 -10 -58 -52 -104 -93 -47 -41 -92 -82 -101 -90 -9 -8 -49 -44
-90 -80 -41 -36 -81 -72 -90 -80 -9 -8 -52 -46 -96 -85 -43 -38 -81 -72 -84
-75 -5 -5 -162 -145 -235 -209 -16 -15 -55 -49 -85 -76 -31 -28 -91 -81 -134
-120 -103 -91 -94 -83 -151 -135 -52 -46 -174 -154 -211 -187 -11 -10 -58 -52
-104 -93 -46 -41 -88 -79 -94 -85 -6 -5 -49 -44 -96 -85 -47 -41 -87 -77 -90
-80 -3 -3 -63 -57 -135 -120 -71 -63 -148 -132 -170 -153 -22 -21 -49 -40 -60
-43 -11 -2 -74 -3 -139 -2 l-120 3 105 95 c85 77 177 160 283 255 37 33 203
182 212 190 6 5 44 39 84 75 40 36 78 70 84 75 6 6 83 76 171 154 88 79 196
177 240 217 44 40 91 82 105 94 14 12 41 36 60 53 19 18 78 70 130 117 52 47
102 92 110 100 8 8 53 49 100 90 46 41 91 82 100 90 9 8 51 47 94 85 44 39 84
75 90 80 6 6 56 50 111 99 55 50 109 99 121 110 12 12 50 46 85 78 35 31 76
67 90 80 14 12 64 57 110 98 46 41 99 90 119 107 19 18 40 32 45 33 6 0 35
-24 65 -53z m73 -964 c73 -65 137 -122 143 -128 6 -5 46 -41 90 -80 43 -38
103 -92 134 -120 31 -27 86 -77 124 -110 38 -33 86 -76 106 -95 21 -19 53 -48
71 -64 19 -17 77 -68 129 -114 52 -47 109 -97 125 -111 38 -34 217 -193 315
-281 41 -37 95 -84 120 -106 24 -21 51 -46 60 -54 43 -40 199 -179 330 -295
80 -70 149 -132 155 -137 6 -5 9 -600 10 -1598 0 -1405 -2 -1591 -15 -1595 -8
-2 -933 -3 -2055 -3 l-2040 1 1 1593 c0 877 2 1595 5 1597 39 35 366 326 389
347 9 8 49 44 90 80 41 36 82 72 90 80 8 8 53 49 100 90 47 40 90 79 95 84 6
6 46 42 90 81 44 38 82 72 85 75 3 3 46 41 95 85 50 44 95 85 101 90 6 6 44
39 84 75 40 36 78 70 84 75 6 6 49 44 96 85 105 93 99 88 393 352 133 119 248
217 255 217 7 1 73 -52 145 -116z"/>
<path d="M3338 4565 c-194 -33 -378 -122 -519 -252 -85 -80 -105 -159 -59
-242 29 -51 79 -83 137 -86 59 -4 101 13 154 62 155 144 351 202 564 166 128
-21 227 -71 338 -170 105 -93 234 -76 293 38 50 97 7 185 -146 299 -118 87
-244 144 -390 177 -89 19 -278 24 -372 8z"/>
<path d="M3364 4040 c-129 -33 -262 -118 -300 -191 -32 -62 -21 -147 25 -203
50 -60 160 -70 231 -21 96 68 121 78 181 78 60 -1 86 -12 178 -77 140 -98 321
36 266 198 -26 74 -129 154 -263 203 -90 33 -219 39 -318 13z"/>
<path d="M3212 3413 c-4 -1 -24 -4 -44 -8 -21 -3 -51 -17 -68 -32 -54 -45 -63
-75 -66 -218 -2 -71 -3 -133 -3 -137 -1 -3 -26 -20 -56 -37 l-55 -31 -37 21
c-21 11 -60 34 -88 50 -133 79 -213 82 -282 7 -17 -18 -263 -433 -263 -443 0
-2 -16 -28 -35 -60 -45 -76 -53 -129 -27 -187 22 -51 54 -78 162 -138 91 -52
109 -66 105 -88 -2 -9 -4 -37 -4 -62 l-1 -45 -97 -54 c-52 -30 -108 -65 -124
-78 -37 -32 -62 -100 -55 -149 7 -39 271 -515 326 -584 49 -62 120 -88 185
-67 17 6 76 36 132 69 l103 58 55 -31 c39 -22 55 -37 56 -52 0 -12 2 -74 3
-137 1 -86 6 -123 18 -146 21 -39 71 -82 106 -91 15 -4 173 -7 352 -7 366 0
360 -1 423 77 33 41 31 21 37 305 0 12 8 26 18 29 9 4 34 18 54 31 l37 24 117
-68 c100 -58 123 -67 164 -67 52 1 94 19 126 55 18 19 144 223 144 232 0 2 43
76 95 166 52 90 97 178 101 195 15 81 -37 160 -141 217 -28 15 -68 37 -90 49
-22 12 -42 25 -45 29 -3 5 -4 37 -2 72 l4 64 62 34 c164 86 210 135 211 225 0
46 -8 65 -86 200 -48 83 -96 166 -106 185 -138 242 -155 264 -222 284 -63 18
-101 7 -225 -64 l-105 -61 -56 32 c-45 25 -55 36 -56 57 0 15 -1 77 -2 137 -3
115 -10 139 -55 187 -44 47 -74 51 -395 52 -163 1 -300 0 -305 -1z m403 -453
c1 -157 17 -182 159 -250 56 -26 125 -66 152 -88 97 -77 155 -78 281 -8 44 25
83 46 86 46 5 0 55 -79 96 -153 l21 -38 -31 -17 c-164 -91 -205 -143 -194
-247 3 -33 5 -100 4 -150 -6 -198 -5 -201 28 -242 16 -21 65 -59 108 -84 42
-25 77 -49 77 -53 1 -15 -95 -178 -107 -182 -7 -3 -41 12 -76 34 -131 80 -189
80 -289 2 -45 -35 -125 -82 -170 -99 -113 -44 -143 -92 -145 -236 l-2 -100
-113 0 -113 0 -2 100 c-1 55 -7 112 -13 126 -17 43 -66 84 -131 110 -34 13
-92 45 -129 72 -109 77 -148 92 -207 80 -27 -6 -84 -31 -126 -56 l-75 -44 -27
46 c-14 25 -40 69 -57 98 l-30 52 82 48 c45 27 95 66 112 87 33 41 34 43 26
241 -2 39 0 102 4 140 6 62 5 75 -16 115 -20 38 -96 107 -121 109 -4 1 -25 12
-47 26 l-39 25 50 87 c28 49 54 92 59 97 5 5 40 -10 81 -33 134 -78 186 -78
289 0 30 22 97 61 147 85 150 72 164 93 169 249 1 55 3 101 3 103 1 1 51 1
113 0 l112 -3 1 -95z"/>
<path d="M3415 2533 c-230 -49 -387 -244 -380 -471 9 -269 229 -467 499 -449
144 9 270 81 351 203 153 226 73 548 -164 668 -94 48 -219 68 -306 49z m143
-362 c50 -27 70 -111 36 -159 -74 -106 -240 -25 -200 98 21 66 100 96 164 61z"/>
</g>
</svg>
